<mxfile host="app.diagrams.net" modified="2021-10-12T12:50:55.361Z" agent="5.0 (Macintosh; Intel Mac OS X 10_15_6) AppleWebKit/605.1.15 (KHTML, like Gecko) Version/14.0.2 Safari/605.1.15" etag="SP-_VCIK6bmixVIdGE6z" version="15.4.3" type="github">
  <diagram id="2XFo1p-fxah8GqtwvO1Y" name="Page-1">
    <mxGraphModel dx="946" dy="645" grid="1" gridSize="10" guides="1" tooltips="1" connect="1" arrows="1" fold="1" page="1" pageScale="1" pageWidth="827" pageHeight="1169" math="1" shadow="0">
      <root>
        <mxCell id="0" />
        <mxCell id="1" parent="0" />
        <mxCell id="qlXSOoJGv1aodKmk3HRi-1" value="$(c^1,s^1_1)$" style="rounded=1;whiteSpace=wrap;html=1;" vertex="1" parent="1">
          <mxGeometry x="110" y="290" width="50" height="30" as="geometry" />
        </mxCell>
        <mxCell id="qlXSOoJGv1aodKmk3HRi-2" value="" style="rounded=1;whiteSpace=wrap;html=1;" vertex="1" parent="1">
          <mxGeometry x="400" y="290" width="50" height="30" as="geometry" />
        </mxCell>
        <mxCell id="qlXSOoJGv1aodKmk3HRi-3" value="" style="rounded=1;whiteSpace=wrap;html=1;" vertex="1" parent="1">
          <mxGeometry x="510" y="290" width="50" height="30" as="geometry" />
        </mxCell>
        <mxCell id="qlXSOoJGv1aodKmk3HRi-4" value="" style="rounded=1;whiteSpace=wrap;html=1;" vertex="1" parent="1">
          <mxGeometry x="300" y="290" width="50" height="30" as="geometry" />
        </mxCell>
        <mxCell id="qlXSOoJGv1aodKmk3HRi-5" value="" style="rounded=1;whiteSpace=wrap;html=1;" vertex="1" parent="1">
          <mxGeometry x="200" y="290" width="50" height="30" as="geometry" />
        </mxCell>
      </root>
    </mxGraphModel>
  </diagram>
</mxfile>
